<svg xmlns="http://www.w3.org/2000/svg" xmlns:xlink="http://www.w3.org/1999/xlink" width="1600" height="760" viewBox="0 0 1600 760">
  <defs>
    <rect id="articles-b" width="750" height="652" x="425" y="108"/>
    <filter id="articles-a" width="104.7%" height="105.5%" x="-2.3%" y="-2.1%" filterUnits="objectBoundingBox">
      <feOffset dy="2" in="SourceAlpha" result="shadowOffsetOuter1"/>
      <feGaussianBlur in="shadowOffsetOuter1" result="shadowBlurOuter1" stdDeviation="4"/>
      <feColorMatrix in="shadowBlurOuter1" result="shadowMatrixOuter1" values="0 0 0 0 0   0 0 0 0 0   0 0 0 0 0  0 0 0 0.16 0"/>
      <feOffset dy="2" in="SourceAlpha" result="shadowOffsetOuter2"/>
      <feGaussianBlur in="shadowOffsetOuter2" result="shadowBlurOuter2" stdDeviation="3"/>
      <feColorMatrix in="shadowBlurOuter2" result="shadowMatrixOuter2" values="0 0 0 0 0   0 0 0 0 0   0 0 0 0 0  0 0 0 0.16 0"/>
      <feOffset dy="5" in="SourceAlpha" result="shadowOffsetOuter3"/>
      <feGaussianBlur in="shadowOffsetOuter3" result="shadowBlurOuter3" stdDeviation="5"/>
      <feColorMatrix in="shadowBlurOuter3" result="shadowMatrixOuter3" values="0 0 0 0 0   0 0 0 0 0   0 0 0 0 0  0 0 0 0.16 0"/>
      <feMerge>
        <feMergeNode in="shadowMatrixOuter1"/>
        <feMergeNode in="shadowMatrixOuter2"/>
        <feMergeNode in="shadowMatrixOuter3"/>
      </feMerge>
    </filter>
    <rect id="articles-d" width="750" height="64"/>
    <filter id="articles-c" width="101.3%" height="115.6%" x="-.7%" y="-6.2%" filterUnits="objectBoundingBox">
      <feOffset dy="1" in="SourceAlpha" result="shadowOffsetOuter1"/>
      <feGaussianBlur in="shadowOffsetOuter1" result="shadowBlurOuter1" stdDeviation="1.5"/>
      <feColorMatrix in="shadowBlurOuter1" result="shadowMatrixOuter1" values="0 0 0 0 0   0 0 0 0 0   0 0 0 0 0  0 0 0 0.16 0"/>
      <feOffset dy="2" in="SourceAlpha" result="shadowOffsetOuter2"/>
      <feGaussianBlur in="shadowOffsetOuter2" result="shadowBlurOuter2" stdDeviation="1"/>
      <feColorMatrix in="shadowBlurOuter2" result="shadowMatrixOuter2" values="0 0 0 0 0   0 0 0 0 0   0 0 0 0 0  0 0 0 0.16 0"/>
      <feOffset in="SourceAlpha" result="shadowOffsetOuter3"/>
      <feGaussianBlur in="shadowOffsetOuter3" result="shadowBlurOuter3" stdDeviation="1"/>
      <feColorMatrix in="shadowBlurOuter3" result="shadowMatrixOuter3" values="0 0 0 0 0   0 0 0 0 0   0 0 0 0 0  0 0 0 0.16 0"/>
      <feMerge>
        <feMergeNode in="shadowMatrixOuter1"/>
        <feMergeNode in="shadowMatrixOuter2"/>
        <feMergeNode in="shadowMatrixOuter3"/>
      </feMerge>
    </filter>
    <path id="articles-e" d="M3,18 L21,18 L21,16 L3,16 L3,18 Z M3,13 L21,13 L21,11 L3,11 L3,13 Z M3,6 L3,8 L21,8 L21,6 L3,6 Z"/>
    <rect id="articles-h" width="317" height="230" rx="2"/>
    <filter id="articles-g" width="103.2%" height="104.3%" x="-1.6%" y="-1.7%" filterUnits="objectBoundingBox">
      <feOffset dy="1" in="SourceAlpha" result="shadowOffsetOuter1"/>
      <feGaussianBlur in="shadowOffsetOuter1" result="shadowBlurOuter1" stdDeviation="1.5"/>
      <feColorMatrix in="shadowBlurOuter1" result="shadowMatrixOuter1" values="0 0 0 0 0   0 0 0 0 0   0 0 0 0 0  0 0 0 0.16 0"/>
      <feOffset dy="2" in="SourceAlpha" result="shadowOffsetOuter2"/>
      <feGaussianBlur in="shadowOffsetOuter2" result="shadowBlurOuter2" stdDeviation="1"/>
      <feColorMatrix in="shadowBlurOuter2" result="shadowMatrixOuter2" values="0 0 0 0 0   0 0 0 0 0   0 0 0 0 0  0 0 0 0.16 0"/>
      <feOffset in="SourceAlpha" result="shadowOffsetOuter3"/>
      <feGaussianBlur in="shadowOffsetOuter3" result="shadowBlurOuter3" stdDeviation="1"/>
      <feColorMatrix in="shadowBlurOuter3" result="shadowMatrixOuter3" values="0 0 0 0 0   0 0 0 0 0   0 0 0 0 0  0 0 0 0.16 0"/>
      <feMerge>
        <feMergeNode in="shadowMatrixOuter1"/>
        <feMergeNode in="shadowMatrixOuter2"/>
        <feMergeNode in="shadowMatrixOuter3"/>
      </feMerge>
    </filter>
    <path id="articles-i" d="M18,16.08 C17.24,16.08 16.56,16.38 16.04,16.85 L8.91,12.7 C8.96,12.47 9,12.24 9,12 C9,11.76 8.96,11.53 8.91,11.3 L15.96,7.19 C16.5,7.69 17.21,8 18,8 C19.66,8 21,6.66 21,5 C21,3.34 19.66,2 18,2 C16.34,2 15,3.34 15,5 C15,5.24 15.04,5.47 15.09,5.7 L8.04,9.81 C7.5,9.31 6.79,9 6,9 C4.34,9 3,10.34 3,12 C3,13.66 4.34,15 6,15 C6.79,15 7.5,14.69 8.04,14.19 L15.16,18.35 C15.11,18.56 15.08,18.78 15.08,19 C15.08,20.61 16.39,21.92 18,21.92 C19.61,21.92 20.92,20.61 20.92,19 C20.92,17.39 19.61,16.08 18,16.08 Z"/>
    <path id="articles-k" d="M19,19 L5,19 L5,5 L12,5 L12,3 L5,3 C3.89,3 3,3.9 3,5 L3,19 C3,20.1 3.89,21 5,21 L19,21 C20.1,21 21,20.1 21,19 L21,12 L19,12 L19,19 Z M14,3 L14,5 L17.59,5 L7.76,14.83 L9.17,16.24 L19,6.41 L19,10 L21,10 L21,3 L14,3 Z"/>
    <path id="articles-m" d="M12,8 C13.1,8 14,7.1 14,6 C14,4.9 13.1,4 12,4 C10.9,4 10,4.9 10,6 C10,7.1 10.9,8 12,8 Z M12,10 C10.9,10 10,10.9 10,12 C10,13.1 10.9,14 12,14 C13.1,14 14,13.1 14,12 C14,10.9 13.1,10 12,10 Z M12,16 C10.9,16 10,16.9 10,18 C10,19.1 10.9,20 12,20 C13.1,20 14,19.1 14,18 C14,16.9 13.1,16 12,16 Z"/>
    <rect id="articles-p" width="317" height="230" rx="2"/>
    <filter id="articles-o" width="103.2%" height="104.3%" x="-1.6%" y="-1.7%" filterUnits="objectBoundingBox">
      <feOffset dy="1" in="SourceAlpha" result="shadowOffsetOuter1"/>
      <feGaussianBlur in="shadowOffsetOuter1" result="shadowBlurOuter1" stdDeviation="1.5"/>
      <feColorMatrix in="shadowBlurOuter1" result="shadowMatrixOuter1" values="0 0 0 0 0   0 0 0 0 0   0 0 0 0 0  0 0 0 0.16 0"/>
      <feOffset dy="2" in="SourceAlpha" result="shadowOffsetOuter2"/>
      <feGaussianBlur in="shadowOffsetOuter2" result="shadowBlurOuter2" stdDeviation="1"/>
      <feColorMatrix in="shadowBlurOuter2" result="shadowMatrixOuter2" values="0 0 0 0 0   0 0 0 0 0   0 0 0 0 0  0 0 0 0.16 0"/>
      <feOffset in="SourceAlpha" result="shadowOffsetOuter3"/>
      <feGaussianBlur in="shadowOffsetOuter3" result="shadowBlurOuter3" stdDeviation="1"/>
      <feColorMatrix in="shadowBlurOuter3" result="shadowMatrixOuter3" values="0 0 0 0 0   0 0 0 0 0   0 0 0 0 0  0 0 0 0.16 0"/>
      <feMerge>
        <feMergeNode in="shadowMatrixOuter1"/>
        <feMergeNode in="shadowMatrixOuter2"/>
        <feMergeNode in="shadowMatrixOuter3"/>
      </feMerge>
    </filter>
    <path id="articles-q" d="M18,16.08 C17.24,16.08 16.56,16.38 16.04,16.85 L8.91,12.7 C8.96,12.47 9,12.24 9,12 C9,11.76 8.96,11.53 8.91,11.3 L15.96,7.19 C16.5,7.69 17.21,8 18,8 C19.66,8 21,6.66 21,5 C21,3.34 19.66,2 18,2 C16.34,2 15,3.34 15,5 C15,5.24 15.04,5.47 15.09,5.7 L8.04,9.81 C7.5,9.31 6.79,9 6,9 C4.34,9 3,10.34 3,12 C3,13.66 4.34,15 6,15 C6.79,15 7.5,14.69 8.04,14.19 L15.16,18.35 C15.11,18.56 15.08,18.78 15.08,19 C15.08,20.61 16.39,21.92 18,21.92 C19.61,21.92 20.92,20.61 20.92,19 C20.92,17.39 19.61,16.08 18,16.08 Z"/>
    <path id="articles-s" d="M19,19 L5,19 L5,5 L12,5 L12,3 L5,3 C3.89,3 3,3.9 3,5 L3,19 C3,20.1 3.89,21 5,21 L19,21 C20.1,21 21,20.1 21,19 L21,12 L19,12 L19,19 Z M14,3 L14,5 L17.59,5 L7.76,14.83 L9.17,16.24 L19,6.41 L19,10 L21,10 L21,3 L14,3 Z"/>
    <path id="articles-u" d="M12,8 C13.1,8 14,7.1 14,6 C14,4.9 13.1,4 12,4 C10.9,4 10,4.9 10,6 C10,7.1 10.9,8 12,8 Z M12,10 C10.9,10 10,10.9 10,12 C10,13.1 10.9,14 12,14 C13.1,14 14,13.1 14,12 C14,10.9 13.1,10 12,10 Z M12,16 C10.9,16 10,16.9 10,18 C10,19.1 10.9,20 12,20 C13.1,20 14,19.1 14,18 C14,16.9 13.1,16 12,16 Z"/>
    <rect id="articles-x" width="317" height="230" rx="2"/>
    <filter id="articles-w" width="103.2%" height="104.3%" x="-1.6%" y="-1.7%" filterUnits="objectBoundingBox">
      <feOffset dy="1" in="SourceAlpha" result="shadowOffsetOuter1"/>
      <feGaussianBlur in="shadowOffsetOuter1" result="shadowBlurOuter1" stdDeviation="1.5"/>
      <feColorMatrix in="shadowBlurOuter1" result="shadowMatrixOuter1" values="0 0 0 0 0   0 0 0 0 0   0 0 0 0 0  0 0 0 0.16 0"/>
      <feOffset dy="2" in="SourceAlpha" result="shadowOffsetOuter2"/>
      <feGaussianBlur in="shadowOffsetOuter2" result="shadowBlurOuter2" stdDeviation="1"/>
      <feColorMatrix in="shadowBlurOuter2" result="shadowMatrixOuter2" values="0 0 0 0 0   0 0 0 0 0   0 0 0 0 0  0 0 0 0.16 0"/>
      <feOffset in="SourceAlpha" result="shadowOffsetOuter3"/>
      <feGaussianBlur in="shadowOffsetOuter3" result="shadowBlurOuter3" stdDeviation="1"/>
      <feColorMatrix in="shadowBlurOuter3" result="shadowMatrixOuter3" values="0 0 0 0 0   0 0 0 0 0   0 0 0 0 0  0 0 0 0.16 0"/>
      <feMerge>
        <feMergeNode in="shadowMatrixOuter1"/>
        <feMergeNode in="shadowMatrixOuter2"/>
        <feMergeNode in="shadowMatrixOuter3"/>
      </feMerge>
    </filter>
    <path id="articles-y" d="M18,16.08 C17.24,16.08 16.56,16.38 16.04,16.85 L8.91,12.7 C8.96,12.47 9,12.24 9,12 C9,11.76 8.96,11.53 8.91,11.3 L15.96,7.19 C16.5,7.69 17.21,8 18,8 C19.66,8 21,6.66 21,5 C21,3.34 19.66,2 18,2 C16.34,2 15,3.34 15,5 C15,5.24 15.04,5.47 15.09,5.7 L8.04,9.81 C7.5,9.31 6.79,9 6,9 C4.34,9 3,10.34 3,12 C3,13.66 4.34,15 6,15 C6.79,15 7.5,14.69 8.04,14.19 L15.16,18.35 C15.11,18.56 15.08,18.78 15.08,19 C15.08,20.61 16.39,21.92 18,21.92 C19.61,21.92 20.92,20.61 20.92,19 C20.92,17.39 19.61,16.08 18,16.08 Z"/>
    <path id="articles-A" d="M19,19 L5,19 L5,5 L12,5 L12,3 L5,3 C3.89,3 3,3.9 3,5 L3,19 C3,20.1 3.89,21 5,21 L19,21 C20.1,21 21,20.1 21,19 L21,12 L19,12 L19,19 Z M14,3 L14,5 L17.59,5 L7.76,14.83 L9.17,16.24 L19,6.41 L19,10 L21,10 L21,3 L14,3 Z"/>
    <path id="articles-C" d="M12,8 C13.1,8 14,7.1 14,6 C14,4.9 13.1,4 12,4 C10.9,4 10,4.9 10,6 C10,7.1 10.9,8 12,8 Z M12,10 C10.9,10 10,10.9 10,12 C10,13.1 10.9,14 12,14 C13.1,14 14,13.1 14,12 C14,10.9 13.1,10 12,10 Z M12,16 C10.9,16 10,16.9 10,18 C10,19.1 10.9,20 12,20 C13.1,20 14,19.1 14,18 C14,16.9 13.1,16 12,16 Z"/>
    <rect id="articles-F" width="317" height="230" rx="2"/>
    <filter id="articles-E" width="103.2%" height="104.3%" x="-1.6%" y="-1.7%" filterUnits="objectBoundingBox">
      <feOffset dy="1" in="SourceAlpha" result="shadowOffsetOuter1"/>
      <feGaussianBlur in="shadowOffsetOuter1" result="shadowBlurOuter1" stdDeviation="1.5"/>
      <feColorMatrix in="shadowBlurOuter1" result="shadowMatrixOuter1" values="0 0 0 0 0   0 0 0 0 0   0 0 0 0 0  0 0 0 0.16 0"/>
      <feOffset dy="2" in="SourceAlpha" result="shadowOffsetOuter2"/>
      <feGaussianBlur in="shadowOffsetOuter2" result="shadowBlurOuter2" stdDeviation="1"/>
      <feColorMatrix in="shadowBlurOuter2" result="shadowMatrixOuter2" values="0 0 0 0 0   0 0 0 0 0   0 0 0 0 0  0 0 0 0.16 0"/>
      <feOffset in="SourceAlpha" result="shadowOffsetOuter3"/>
      <feGaussianBlur in="shadowOffsetOuter3" result="shadowBlurOuter3" stdDeviation="1"/>
      <feColorMatrix in="shadowBlurOuter3" result="shadowMatrixOuter3" values="0 0 0 0 0   0 0 0 0 0   0 0 0 0 0  0 0 0 0.16 0"/>
      <feMerge>
        <feMergeNode in="shadowMatrixOuter1"/>
        <feMergeNode in="shadowMatrixOuter2"/>
        <feMergeNode in="shadowMatrixOuter3"/>
      </feMerge>
    </filter>
    <path id="articles-G" d="M18,16.08 C17.24,16.08 16.56,16.38 16.04,16.85 L8.91,12.7 C8.96,12.47 9,12.24 9,12 C9,11.76 8.96,11.53 8.91,11.3 L15.96,7.19 C16.5,7.69 17.21,8 18,8 C19.66,8 21,6.66 21,5 C21,3.34 19.66,2 18,2 C16.34,2 15,3.34 15,5 C15,5.24 15.04,5.47 15.09,5.7 L8.04,9.81 C7.5,9.31 6.79,9 6,9 C4.34,9 3,10.34 3,12 C3,13.66 4.34,15 6,15 C6.79,15 7.5,14.69 8.04,14.19 L15.16,18.35 C15.11,18.56 15.08,18.78 15.08,19 C15.08,20.61 16.39,21.92 18,21.92 C19.61,21.92 20.92,20.61 20.92,19 C20.92,17.39 19.61,16.08 18,16.08 Z"/>
    <path id="articles-I" d="M19,19 L5,19 L5,5 L12,5 L12,3 L5,3 C3.89,3 3,3.9 3,5 L3,19 C3,20.1 3.89,21 5,21 L19,21 C20.1,21 21,20.1 21,19 L21,12 L19,12 L19,19 Z M14,3 L14,5 L17.59,5 L7.76,14.83 L9.17,16.24 L19,6.41 L19,10 L21,10 L21,3 L14,3 Z"/>
    <path id="articles-K" d="M12,8 C13.1,8 14,7.1 14,6 C14,4.9 13.1,4 12,4 C10.9,4 10,4.9 10,6 C10,7.1 10.9,8 12,8 Z M12,10 C10.9,10 10,10.9 10,12 C10,13.1 10.9,14 12,14 C13.1,14 14,13.1 14,12 C14,10.9 13.1,10 12,10 Z M12,16 C10.9,16 10,16.9 10,18 C10,19.1 10.9,20 12,20 C13.1,20 14,19.1 14,18 C14,16.9 13.1,16 12,16 Z"/>
  </defs>
  <g fill="none" fill-rule="evenodd">
    <rect width="1600" height="760" fill="#EBEBEB"/>
    <use fill="#000" filter="url(#articles-a)" xlink:href="#articles-b"/>
    <use fill="#FAFAFA" xlink:href="#articles-b"/>
    <g transform="translate(425 108)">
      <use fill="#000" filter="url(#articles-c)" xlink:href="#articles-d"/>
      <use fill="#3F51B5" xlink:href="#articles-d"/>
      <rect width="120" height="8" x="69" y="28" fill="#FEFEFE" rx="2"/>
      <g transform="translate(23 20)">
        <mask id="articles-f" fill="#fff">
          <use xlink:href="#articles-e"/>
        </mask>
        <g fill="#FFF" mask="url(#articles-f)">
          <rect width="24" height="24"/>
        </g>
      </g>
    </g>
    <g transform="translate(462 219)">
      <use fill="#000" filter="url(#articles-g)" xlink:href="#articles-h"/>
      <use fill="#FFF" xlink:href="#articles-h"/>
      <circle cx="37" cy="37" r="25" fill="#D8D8D8"/>
      <rect width="120" height="8" x="75" y="25" fill="#D8D8D8" rx="2"/>
      <rect width="291" height="17" x="12" y="79" fill="#D8D8D8" rx="2"/>
      <rect width="291" height="8" x="12" y="114" fill="#D8D8D8" rx="2"/>
      <rect width="147" height="8" x="12" y="135" fill="#D8D8D8" rx="2"/>
      <rect width="60" height="8" x="75" y="42" fill="#D8D8D8" rx="2"/>
      <g transform="translate(12 158)">
        <rect width="79" height="23" fill="#D8D8D8" rx="9"/>
        <rect width="62" height="8" x="9" y="8" fill="#878787" rx="2"/>
      </g>
      <g transform="translate(231 185)">
        <rect width="40" height="40"/>
        <g transform="translate(8 8)">
          <mask id="articles-j" fill="#fff">
            <use xlink:href="#articles-i"/>
          </mask>
          <g fill="#3F51B5" mask="url(#articles-j)">
            <rect width="24" height="24"/>
          </g>
        </g>
      </g>
      <g transform="translate(271 185)">
        <rect width="40" height="40"/>
        <g transform="translate(8 8)">
          <mask id="articles-l" fill="#fff">
            <use xlink:href="#articles-k"/>
          </mask>
          <g fill="#3F51B5" mask="url(#articles-l)">
            <rect width="24" height="24"/>
          </g>
        </g>
      </g>
      <g transform="translate(263 17)">
        <rect width="40" height="40"/>
        <g transform="translate(8 8)">
          <mask id="articles-n" fill="#fff">
            <use xlink:href="#articles-m"/>
          </mask>
          <g fill="#000" fill-opacity=".54" mask="url(#articles-n)">
            <rect width="24" height="24"/>
          </g>
        </g>
      </g>
      <g transform="translate(99 158)">
        <rect width="56" height="23" fill="#D8D8D8" rx="9"/>
        <rect width="39" height="8" x="9" y="8" fill="#878787" rx="2"/>
      </g>
    </g>
    <g transform="translate(821 218)">
      <use fill="#000" filter="url(#articles-o)" xlink:href="#articles-p"/>
      <use fill="#FFF" xlink:href="#articles-p"/>
      <circle cx="37" cy="37" r="25" fill="#D8D8D8"/>
      <rect width="120" height="8" x="75" y="25" fill="#D8D8D8" rx="2"/>
      <rect width="291" height="17" x="12" y="79" fill="#D8D8D8" rx="2"/>
      <rect width="291" height="8" x="12" y="114" fill="#D8D8D8" rx="2"/>
      <rect width="147" height="8" x="12" y="135" fill="#D8D8D8" rx="2"/>
      <rect width="60" height="8" x="75" y="42" fill="#D8D8D8" rx="2"/>
      <g transform="translate(12 158)">
        <rect width="79" height="23" fill="#D8D8D8" rx="9"/>
        <rect width="62" height="8" x="9" y="8" fill="#878787" rx="2"/>
      </g>
      <g transform="translate(231 185)">
        <rect width="40" height="40"/>
        <g transform="translate(8 8)">
          <mask id="articles-r" fill="#fff">
            <use xlink:href="#articles-q"/>
          </mask>
          <g fill="#3F51B5" mask="url(#articles-r)">
            <rect width="24" height="24"/>
          </g>
        </g>
      </g>
      <g transform="translate(271 185)">
        <rect width="40" height="40"/>
        <g transform="translate(8 8)">
          <mask id="articles-t" fill="#fff">
            <use xlink:href="#articles-s"/>
          </mask>
          <g fill="#3F51B5" mask="url(#articles-t)">
            <rect width="24" height="24"/>
          </g>
        </g>
      </g>
      <g transform="translate(263 17)">
        <rect width="40" height="40"/>
        <g transform="translate(8 8)">
          <mask id="articles-v" fill="#fff">
            <use xlink:href="#articles-u"/>
          </mask>
          <g fill="#000" fill-opacity=".54" mask="url(#articles-v)">
            <rect width="24" height="24"/>
          </g>
        </g>
      </g>
      <g transform="translate(99 158)">
        <rect width="56" height="23" fill="#D8D8D8" rx="9"/>
        <rect width="39" height="8" x="9" y="8" fill="#878787" rx="2"/>
      </g>
    </g>
    <g transform="translate(462 475)">
      <use fill="#000" filter="url(#articles-w)" xlink:href="#articles-x"/>
      <use fill="#FFF" xlink:href="#articles-x"/>
      <circle cx="37" cy="37" r="25" fill="#D8D8D8"/>
      <rect width="120" height="8" x="75" y="25" fill="#D8D8D8" rx="2"/>
      <rect width="291" height="17" x="12" y="79" fill="#D8D8D8" rx="2"/>
      <rect width="291" height="8" x="12" y="114" fill="#D8D8D8" rx="2"/>
      <rect width="147" height="8" x="12" y="135" fill="#D8D8D8" rx="2"/>
      <rect width="60" height="8" x="75" y="42" fill="#D8D8D8" rx="2"/>
      <g transform="translate(12 158)">
        <rect width="79" height="23" fill="#D8D8D8" rx="9"/>
        <rect width="62" height="8" x="9" y="8" fill="#878787" rx="2"/>
      </g>
      <g transform="translate(231 185)">
        <rect width="40" height="40"/>
        <g transform="translate(8 8)">
          <mask id="articles-z" fill="#fff">
            <use xlink:href="#articles-y"/>
          </mask>
          <g fill="#3F51B5" mask="url(#articles-z)">
            <rect width="24" height="24"/>
          </g>
        </g>
      </g>
      <g transform="translate(271 185)">
        <rect width="40" height="40"/>
        <g transform="translate(8 8)">
          <mask id="articles-B" fill="#fff">
            <use xlink:href="#articles-A"/>
          </mask>
          <g fill="#3F51B5" mask="url(#articles-B)">
            <rect width="24" height="24"/>
          </g>
        </g>
      </g>
      <g transform="translate(263 17)">
        <rect width="40" height="40"/>
        <g transform="translate(8 8)">
          <mask id="articles-D" fill="#fff">
            <use xlink:href="#articles-C"/>
          </mask>
          <g fill="#000" fill-opacity=".54" mask="url(#articles-D)">
            <rect width="24" height="24"/>
          </g>
        </g>
      </g>
      <g transform="translate(99 158)">
        <rect width="56" height="23" fill="#D8D8D8" rx="9"/>
        <rect width="39" height="8" x="9" y="8" fill="#878787" rx="2"/>
      </g>
    </g>
    <g transform="translate(821 474)">
      <use fill="#000" filter="url(#articles-E)" xlink:href="#articles-F"/>
      <use fill="#FFF" xlink:href="#articles-F"/>
      <circle cx="37" cy="37" r="25" fill="#D8D8D8"/>
      <rect width="120" height="8" x="75" y="25" fill="#D8D8D8" rx="2"/>
      <rect width="291" height="17" x="12" y="79" fill="#D8D8D8" rx="2"/>
      <rect width="291" height="8" x="12" y="114" fill="#D8D8D8" rx="2"/>
      <rect width="147" height="8" x="12" y="135" fill="#D8D8D8" rx="2"/>
      <rect width="60" height="8" x="75" y="42" fill="#D8D8D8" rx="2"/>
      <g transform="translate(12 158)">
        <rect width="79" height="23" fill="#D8D8D8" rx="9"/>
        <rect width="62" height="8" x="9" y="8" fill="#878787" rx="2"/>
      </g>
      <g transform="translate(231 185)">
        <rect width="40" height="40"/>
        <g transform="translate(8 8)">
          <mask id="articles-H" fill="#fff">
            <use xlink:href="#articles-G"/>
          </mask>
          <g fill="#3F51B5" mask="url(#articles-H)">
            <rect width="24" height="24"/>
          </g>
        </g>
      </g>
      <g transform="translate(271 185)">
        <rect width="40" height="40"/>
        <g transform="translate(8 8)">
          <mask id="articles-J" fill="#fff">
            <use xlink:href="#articles-I"/>
          </mask>
          <g fill="#3F51B5" mask="url(#articles-J)">
            <rect width="24" height="24"/>
          </g>
        </g>
      </g>
      <g transform="translate(263 17)">
        <rect width="40" height="40"/>
        <g transform="translate(8 8)">
          <mask id="articles-L" fill="#fff">
            <use xlink:href="#articles-K"/>
          </mask>
          <g fill="#000" fill-opacity=".54" mask="url(#articles-L)">
            <rect width="24" height="24"/>
          </g>
        </g>
      </g>
      <g transform="translate(99 158)">
        <rect width="56" height="23" fill="#D8D8D8" rx="9"/>
        <rect width="39" height="8" x="9" y="8" fill="#878787" rx="2"/>
      </g>
    </g>
  </g>
</svg>
